# Blender v2.81 (sub 16) OBJ File: ''
# www.blender.org
mtllib roundCornerB_edit.mtl
o roundCornerB.002
v 0.499950 0.146652 -0.499950
v 0.499950 -0.000000 0.499950
v 0.499950 0.000000 -0.499950
v 0.499950 0.146652 0.499950
v -0.499950 0.000000 -0.399960
v -0.499950 0.000000 -0.499950
v -0.499950 -0.000000 0.399960
v -0.499950 -0.000000 0.499950
v -0.399960 -0.000000 0.499950
v 0.399960 -0.000000 0.499950
v -0.499950 0.146652 -0.499950
v 0.399960 0.018082 0.499950
v 0.399960 0.146652 0.499950
v -0.499950 0.146652 0.499950
v -0.499950 0.018082 0.399960
v -0.499950 0.146652 0.399960
v -0.499950 0.146652 -0.399960
v -0.382488 0.146652 -0.392261
v -0.267036 0.146652 -0.369296
v -0.155569 0.146652 -0.331458
v -0.049995 0.146652 -0.279395
v 0.047880 0.146652 -0.213997
v 0.136383 0.146652 -0.136382
v 0.213997 0.146652 -0.047881
v 0.279395 0.146652 0.049995
v 0.331458 0.146652 0.155569
v 0.369296 0.146652 0.267036
v 0.392261 0.146652 0.382488
v -0.382488 0.018082 -0.392261
v -0.499950 0.018082 -0.399960
v -0.267036 0.018082 -0.369296
v -0.155569 0.018082 -0.331458
v -0.049995 0.018082 -0.279395
v 0.047880 0.018082 -0.213997
v 0.136383 0.018082 -0.136383
v 0.213997 0.018082 -0.047881
v 0.279395 0.018082 0.049995
v 0.331458 0.018082 0.155569
v 0.369296 0.018082 0.267036
v 0.392261 0.018082 0.382488
v -0.486899 0.146652 0.400816
v -0.474071 0.146652 0.403367
v -0.461686 0.146652 0.407571
v -0.449955 0.146652 0.413356
v -0.439080 0.146652 0.420623
v -0.429246 0.146652 0.429247
v -0.420623 0.146652 0.439080
v -0.413356 0.146652 0.449955
v -0.407571 0.146652 0.461686
v -0.403367 0.146652 0.474071
v -0.400815 0.146652 0.486899
v -0.399960 0.146652 0.499950
v -0.399960 0.018082 0.499950
v -0.400815 0.018082 0.486899
v -0.403367 0.018082 0.474071
v -0.407571 0.018082 0.461686
v -0.413356 0.018082 0.449955
v -0.420623 0.018082 0.439080
v -0.429246 0.018082 0.429246
v -0.439080 0.018082 0.420623
v -0.449955 0.018082 0.413356
v -0.461686 0.018082 0.407571
v -0.474071 0.018082 0.403367
v -0.486899 0.018082 0.400815
vt 19.683069 5.773701
vt -19.683069 0.000000
vt 19.683069 0.000000
vt -19.683069 5.773701
vt 19.683069 19.683069
vt 15.746460 -19.683069
vt 19.683069 -19.683069
vt -19.683069 19.683069
vt -15.746460 -19.683069
vt -19.683069 -19.683069
vt -19.683069 -15.746460
vt -19.683069 15.746460
vt -19.683069 5.773701
vt 19.683069 -0.000000
vt 19.683069 5.773701
vt -19.683069 -0.000000
vt 19.683069 0.000000
vt 15.746460 2.493189
vt 15.746460 0.000000
vt 15.746460 5.773701
vt 19.683069 5.773701
vt 19.683069 5.773701
vt 15.746460 -0.000000
vt 19.683069 -0.000000
vt 15.746460 2.493189
vt 15.746460 5.773701
vt -15.746460 -19.683069
vt -19.683069 19.683069
vt -19.683069 -19.683069
vt -15.443350 -15.058590
vt -14.539220 -10.513230
vt -13.049540 -6.124778
vt -10.999800 -1.968307
vt -8.425063 1.885059
vt -5.369388 5.369388
vt -1.885059 8.425063
vt 1.968307 10.999800
vt 6.124778 13.049540
vt 19.683069 19.683069
vt 10.513230 14.539220
vt 15.058590 15.443350
vt 19.683069 15.746460
vt -16.036390 2.493189
vt -20.670799 5.773701
vt -20.670799 2.493189
vt -16.036390 5.773701
vt -13.147690 2.493189
vt -17.782089 5.773701
vt -17.782089 2.493189
vt -13.147690 5.773701
vt -9.994375 2.493189
vt -14.628780 5.773701
vt -14.628780 2.493189
vt -9.994375 5.773701
vt -6.630408 2.493189
vt -11.264810 5.773701
vt -11.264810 2.493189
vt -6.630408 5.773701
vt -3.113345 2.493189
vt -7.747749 5.773701
vt -7.747749 2.493189
vt -3.113345 5.773701
vt 0.496636 2.493189
vt -4.137768 5.773701
vt -4.137768 2.493189
vt 0.496636 5.773701
vt 4.137768 2.493189
vt -0.496636 5.773701
vt -0.496636 2.493189
vt 4.137768 5.773701
vt 7.747749 2.493189
vt 3.113345 5.773701
vt 3.113345 2.493189
vt 7.747749 5.773701
vt 11.264810 2.493189
vt 6.630408 5.773701
vt 6.630408 2.493189
vt 11.264810 5.773701
vt 14.628780 2.493189
vt 9.994375 5.773701
vt 9.994375 2.493189
vt 14.628780 5.773701
vt 17.782089 2.493189
vt 13.147690 5.773701
vt 13.147690 2.493189
vt 17.782089 5.773701
vt 20.670799 2.493189
vt 16.036390 5.773701
vt 16.036390 2.493189
vt 20.670799 5.773701
vt 19.683069 -19.683069
vt 15.780140 -19.169241
vt 15.746460 -19.683069
vt 15.880590 -18.664200
vt 16.046110 -18.176590
vt 16.273861 -17.714760
vt 16.559940 -17.286610
vt 16.899460 -16.899460
vt 17.286610 -16.559940
vt 17.714760 -16.273861
vt 18.176590 -16.046110
vt 18.664200 -15.880590
vt 19.169241 -15.780140
vt 19.683069 -15.746460
vt -18.096130 5.773701
vt -18.611059 2.493189
vt -18.096130 2.493189
vt -18.611059 5.773701
vt -15.207420 5.773701
vt -15.722360 2.493189
vt -15.207420 2.493189
vt -15.722360 5.773701
vt -12.054110 5.773701
vt -12.569040 2.493189
vt -12.054110 2.493189
vt -12.569040 5.773701
vt -8.690144 5.773701
vt -9.205077 2.493189
vt -8.690144 2.493189
vt -9.205077 5.773701
vt -5.173080 5.773701
vt -5.688014 2.493189
vt -5.173080 2.493189
vt -5.688014 5.773701
vt -1.563099 5.773701
vt -2.078033 2.493189
vt -1.563099 2.493189
vt -2.078033 5.773701
vt 1.563099 5.773701
vt 2.078033 2.493189
vt 2.078033 5.773701
vt 1.563099 2.493189
vt 5.173080 5.773701
vt 5.688014 2.493189
vt 5.688014 5.773701
vt 5.173080 2.493189
vt 8.690144 5.773701
vt 9.205077 2.493189
vt 9.205077 5.773701
vt 8.690144 2.493189
vt 12.054110 5.773701
vt 12.569040 2.493189
vt 12.569040 5.773701
vt 12.054110 2.493189
vt 15.207420 5.773701
vt 15.722360 2.493189
vt 15.722360 5.773701
vt 15.207420 2.493189
vt 18.096130 5.773701
vt 18.611059 2.493189
vt 18.611059 5.773701
vt 18.096130 2.493189
vt -15.746460 2.493189
vt -19.683069 0.000000
vt -15.746460 0.000000
vt -19.683069 5.773701
vt -15.746460 5.773701
vt -15.746460 0.000000
vt -19.683069 5.773701
vt -19.683069 0.000000
vt -15.746460 5.773701
vt -15.746460 2.493189
vt 15.746460 -19.683069
vt -15.443350 -15.058590
vt -15.746460 -19.683069
vt -14.539220 -10.513230
vt -13.049540 -6.124778
vt -10.999800 -1.968307
vt -8.425063 1.885059
vt -5.369388 5.369388
vt -1.885059 8.425063
vt 1.968307 10.999800
vt 6.124778 13.049540
vt 10.513230 14.539220
vt 15.058590 15.443350
vt 15.780140 -19.169241
vt 19.683069 15.746460
vt 15.880590 -18.664200
vt 16.046110 -18.176590
vt 16.273861 -17.714760
vt 16.559940 -17.286610
vt 16.899460 -16.899460
vt 17.286610 -16.559940
vt 17.714760 -16.273861
vt 18.176590 -16.046110
vt 18.664200 -15.880590
vt 19.169241 -15.780140
vt 19.683069 -15.746460
vn 1.0000 0.0000 -0.0000
vn 0.0000 -1.0000 -0.0000
vn -0.0000 0.0000 -1.0000
vn 0.0000 -0.0000 1.0000
vn -1.0000 0.0000 0.0000
vn -0.0000 1.0000 0.0000
vn -0.1305 -0.0000 0.9914
vn -0.0654 -0.0000 0.9979
vn -0.2588 -0.0000 0.9659
vn -0.3827 -0.0000 0.9239
vn -0.5000 -0.0000 0.8660
vn -0.6088 -0.0000 0.7934
vn -0.7071 -0.0000 0.7071
vn -0.7934 -0.0000 0.6088
vn -0.8660 -0.0000 0.5000
vn -0.9239 -0.0000 0.3827
vn -0.9659 -0.0000 0.2588
vn -0.9914 0.0000 0.1305
vn -0.9979 -0.0000 0.0654
vn 0.9914 -0.0000 -0.1305
vn 0.9979 0.0000 -0.0654
vn 0.9659 -0.0000 -0.2588
vn 0.9239 0.0000 -0.3827
vn 0.8660 0.0000 -0.5000
vn 0.7934 0.0000 -0.6088
vn 0.7071 0.0000 -0.7071
vn 0.6088 0.0000 -0.7934
vn 0.5000 0.0000 -0.8660
vn 0.3827 0.0000 -0.9239
vn 0.2588 0.0000 -0.9659
vn 0.1305 0.0000 -0.9914
vn 0.0654 0.0000 -0.9979
vn -0.8944 0.0000 0.4472
usemtl border.002
s 1
f 1/1/1 2/2/1 3/3/1
f 2/2/1 1/1/1 4/4/1
f 3/5/2 5/6/2 6/7/2
f 5/6/2 3/5/2 2/8/2
f 5/6/2 2/8/2 7/9/2
f 7/9/2 2/8/2 8/10/2
f 8/10/2 2/8/2 9/11/2
f 9/11/2 2/8/2 10/12/2
f 1/13/3 6/14/3 11/15/3
f 6/14/3 1/13/3 3/16/3
f 2/17/4 12/18/4 10/19/4
f 12/18/4 2/17/4 13/20/4
f 13/20/4 2/17/4 4/21/4
f 14/22/5 7/23/5 8/24/5
f 7/23/5 14/22/5 15/25/5
f 15/25/5 14/22/5 16/26/5
f 17/27/6 1/28/6 11/29/6
f 1/28/6 17/27/6 18/30/6
f 1/28/6 18/30/6 19/31/6
f 1/28/6 19/31/6 20/32/6
f 1/28/6 20/32/6 21/33/6
f 1/28/6 21/33/6 22/34/6
f 1/28/6 22/34/6 23/35/6
f 1/28/6 23/35/6 24/36/6
f 1/28/6 24/36/6 25/37/6
f 1/28/6 25/37/6 26/38/6
f 1/28/6 26/38/6 4/39/6
f 4/39/6 26/38/6 27/40/6
f 4/39/6 27/40/6 28/41/6
f 4/39/6 28/41/6 13/42/6
f 29/43/7 17/44/8 30/45/8
f 17/44/8 29/43/7 18/46/7
f 31/47/9 18/48/7 29/49/7
f 18/48/7 31/47/9 19/50/9
f 32/51/10 19/52/9 31/53/9
f 19/52/9 32/51/10 20/54/10
f 33/55/11 20/56/10 32/57/10
f 20/56/10 33/55/11 21/58/11
f 34/59/12 21/60/11 33/61/11
f 21/60/11 34/59/12 22/62/12
f 35/63/13 22/64/12 34/65/12
f 22/64/12 35/63/13 23/66/13
f 36/67/14 23/68/13 35/69/13
f 23/68/13 36/67/14 24/70/14
f 37/71/15 24/72/14 36/73/14
f 24/72/14 37/71/15 25/74/15
f 38/75/16 25/76/15 37/77/15
f 25/76/15 38/75/16 26/78/16
f 39/79/17 26/80/16 38/81/16
f 26/80/16 39/79/17 27/82/17
f 40/83/18 27/84/17 39/85/17
f 27/84/17 40/83/18 28/86/18
f 12/87/19 28/88/18 40/89/18
f 28/88/18 12/87/19 13/90/19
f 14/91/6 41/92/6 16/93/6
f 41/92/6 14/91/6 42/94/6
f 42/94/6 14/91/6 43/95/6
f 43/95/6 14/91/6 44/96/6
f 44/96/6 14/91/6 45/97/6
f 45/97/6 14/91/6 46/98/6
f 46/98/6 14/91/6 47/99/6
f 47/99/6 14/91/6 48/100/6
f 48/100/6 14/91/6 49/101/6
f 49/101/6 14/91/6 50/102/6
f 50/102/6 14/91/6 51/103/6
f 51/103/6 14/91/6 52/104/6
f 51/105/20 53/106/21 54/107/20
f 53/106/21 51/105/20 52/108/21
f 50/109/22 54/110/20 55/111/22
f 54/110/20 50/109/22 51/112/20
f 49/113/23 55/114/22 56/115/23
f 55/114/22 49/113/23 50/116/22
f 48/117/24 56/118/23 57/119/24
f 56/118/23 48/117/24 49/120/23
f 47/121/25 57/122/24 58/123/25
f 57/122/24 47/121/25 48/124/24
f 46/125/26 58/126/25 59/127/26
f 58/126/25 46/125/26 47/128/25
f 46/129/26 60/130/27 45/131/27
f 60/130/27 46/129/26 59/132/26
f 45/133/27 61/134/28 44/135/28
f 61/134/28 45/133/27 60/136/27
f 44/137/28 62/138/29 43/139/29
f 62/138/29 44/137/28 61/140/28
f 43/141/29 63/142/30 42/143/30
f 63/142/30 43/141/29 62/144/29
f 42/145/30 64/146/31 41/147/31
f 64/146/31 42/145/30 63/148/30
f 41/149/31 15/150/32 16/151/32
f 15/150/32 41/149/31 64/152/31
f 30/153/5 6/154/5 5/155/5
f 6/154/5 30/153/5 11/156/5
f 11/156/5 30/153/5 17/157/5
f 9/158/4 14/159/4 8/160/4
f 14/159/4 9/158/4 52/161/4
f 52/161/4 9/158/4 53/162/33
usemtl green.002
f 15/163/6 29/164/6 30/165/6
f 29/164/6 15/163/6 31/166/6
f 31/166/6 15/163/6 32/167/6
f 32/167/6 15/163/6 33/168/6
f 33/168/6 15/163/6 34/169/6
f 34/169/6 15/163/6 35/170/6
f 35/170/6 15/163/6 36/171/6
f 36/171/6 15/163/6 37/172/6
f 37/172/6 15/163/6 38/173/6
f 38/173/6 15/163/6 39/174/6
f 39/174/6 15/163/6 40/175/6
f 40/175/6 15/163/6 64/176/6
f 40/175/6 64/176/6 12/177/6
f 12/177/6 64/176/6 63/178/6
f 12/177/6 63/178/6 62/179/6
f 12/177/6 62/179/6 61/180/6
f 12/177/6 61/180/6 60/181/6
f 12/177/6 60/181/6 59/182/6
f 12/177/6 59/182/6 58/183/6
f 12/177/6 58/183/6 57/184/6
f 12/177/6 57/184/6 56/185/6
f 12/177/6 56/185/6 55/186/6
f 12/177/6 55/186/6 54/187/6
f 12/177/6 54/187/6 53/188/6
f 15/25/5 5/155/5 7/23/5
f 5/155/5 15/25/5 30/153/5
f 10/19/4 53/162/33 9/158/4
f 53/162/33 10/19/4 12/18/4
